<svg width="24" height="26" viewBox="0 0 24 26" fill="none" xmlns="http://www.w3.org/2000/svg">
<path d="M12 13C13.2856 13 14.5423 12.6188 15.6112 11.9046C16.6801 11.1903 17.5132 10.1752 18.0052 8.98744C18.4972 7.79972 18.6259 6.49279 18.3751 5.23191C18.1243 3.97104 17.5052 2.81285 16.5962 1.90381C15.6871 0.994767 14.529 0.375702 13.2681 0.124899C12.0072 -0.125905 10.7003 0.00281634 9.51256 0.494786C8.32484 0.986755 7.30968 1.81988 6.59545 2.88879C5.88122 3.95771 5.5 5.21442 5.5 6.5C5.5 8.22391 6.18482 9.87721 7.40381 11.0962C8.62279 12.3152 10.2761 13 12 13ZM12 1.85714C12.9183 1.85714 13.8159 2.12944 14.5794 2.63961C15.3429 3.14977 15.938 3.87489 16.2894 4.72326C16.6408 5.57163 16.7328 6.50515 16.5536 7.40578C16.3745 8.3064 15.9323 9.13368 15.283 9.78299C14.6337 10.4323 13.8064 10.8745 12.9058 11.0536C12.0051 11.2328 11.0716 11.1408 10.2233 10.7894C9.37488 10.438 8.64977 9.84295 8.1396 9.07943C7.62944 8.31592 7.35714 7.41827 7.35714 6.5C7.35714 5.26864 7.8463 4.08771 8.717 3.21701C9.58771 2.3463 10.7686 1.85714 12 1.85714Z" fill="#646464"/>
<path d="M12.9288 14.8574H11.0717C8.36271 14.8574 5.76467 15.9336 3.84912 17.8491C1.93357 19.7647 0.857422 22.3627 0.857422 25.0717C0.857422 25.318 0.955253 25.5542 1.12939 25.7283C1.30354 25.9024 1.53972 26.0003 1.78599 26.0003H22.2146C22.4608 26.0003 22.697 25.9024 22.8712 25.7283C23.0453 25.5542 23.1431 25.318 23.1431 25.0717C23.1431 22.3627 22.067 19.7647 20.1514 17.8491C18.2359 15.9336 15.6378 14.8574 12.9288 14.8574ZM2.77028 24.1431C2.99861 22.1009 3.9714 20.2143 5.50277 18.844C7.03414 17.4736 9.01672 16.7155 11.0717 16.7146H12.9288C14.9838 16.7155 16.9664 17.4736 18.4978 18.844C20.0292 20.2143 21.0019 22.1009 21.2303 24.1431H2.77028Z" fill="#646464"/>
</svg>
