<svg width="24" height="24" viewBox="0 0 24 24" fill="none" xmlns="http://www.w3.org/2000/svg">
<path d="M23.662 10.8339L17.9942 5.37709V1.0342C17.9942 0.474774 17.5329 0.0134949 16.9735 0.0134949C16.414 0.0134949 15.9528 0.474774 15.9528 1.0342V3.4142L12.6845 0.26867C12.3263 -0.0895568 11.7129 -0.0895568 11.3056 0.26867L0.333062 10.8339C-0.0742372 11.2412 -0.128217 11.8546 0.28399 12.2619C0.696197 12.6692 1.30469 12.7232 1.71199 12.311L1.86412 12.1638V22.9793C1.86412 23.5387 2.32539 24 2.88482 24H21.1593C21.7187 24 22.1309 23.5387 22.18 23.0284V12.2668L22.2831 12.365C23.029 12.8802 23.5589 12.5171 23.7111 12.2619C24.0693 11.8546 24.0693 11.1921 23.662 10.8339ZM13.8083 22.0126H10.2358V16.5508H13.8083V22.0126ZM20.1386 22.0126H15.8006V15.5301C15.8006 14.9707 15.3393 14.5094 14.7799 14.5094H9.21514C8.65571 14.5094 8.19443 14.9707 8.19443 15.5301V22.0126H3.90552V12.0067H20.1386V22.0126ZM4.10181 10.0193L12.0221 2.41313L19.8638 10.0193H4.10181Z" fill="url(#paint0_linear_1_859)"/>
<defs>
<linearGradient id="paint0_linear_1_859" x1="0" y1="6.65724" x2="23.9778" y2="6.53658" gradientUnits="userSpaceOnUse">
<stop stop-color="#F5BD4D"/>
<stop offset="1" stop-color="#F89222"/>
</linearGradient>
</defs>
</svg>
