<svg width="24" height="24" viewBox="0 0 24 24" fill="none" xmlns="http://www.w3.org/2000/svg">
<path fill-rule="evenodd" clip-rule="evenodd" d="M19.5529 0.618816C19.1498 0.972751 18.6878 1.26255 18.5265 1.26298C18.1599 1.26362 8.96594 11.3568 8.71776 12.031C8.37819 12.9531 7.77822 16.4781 7.90457 16.8076C8.0899 17.2905 8.92905 17.2124 11.2378 16.4972L13.2994 15.8586L18.0722 10.5854C20.6973 7.68508 22.8449 5.1642 22.8449 4.98359C22.8449 4.80276 23.038 4.40936 23.2739 4.10948C23.8572 3.36793 23.848 1.93352 23.2551 1.17975C22.2078 -0.151476 20.6917 -0.381212 19.5529 0.618816ZM21.572 1.91336C22.0725 2.18128 22.1197 2.94085 21.6473 3.1221C21.1999 3.29392 20.3843 2.47837 20.5561 2.03091C20.7076 1.636 20.9922 1.60319 21.572 1.91336ZM1.58736 3.86515C-0.0184383 4.79654 9.30618e-06 4.68156 9.30618e-06 13.7037C9.30618e-06 21.6891 0.00344136 21.7533 0.48608 22.5293C1.39173 23.9856 1.48825 24 10.3321 24C17.6356 24 18.2968 23.9695 18.9872 23.6004C20.4334 22.8271 20.5838 22.2782 20.6628 17.4839C20.7012 15.139 20.6769 12.9975 20.6085 12.7256C20.4603 12.135 19.7309 11.8491 19.2953 12.2107C19.0417 12.4212 18.9838 13.277 18.9838 16.8115C18.9838 20.8794 18.9557 21.1893 18.5391 21.7187L18.0947 22.2839H10.3139C2.6764 22.2839 2.52582 22.2756 2.12469 21.8324C1.7388 21.4062 1.71606 20.9523 1.71606 13.7037C1.71606 6.4551 1.7388 6.00121 2.12469 5.57498C2.51445 5.14426 2.73346 5.12345 6.87987 5.12345C9.27054 5.12345 11.3791 5.06489 11.5658 4.99324C12.0132 4.82164 12.0132 3.70921 11.5658 3.5376C11.3791 3.46596 9.2315 3.40954 6.79299 3.41233C2.69206 3.41684 2.30166 3.45094 1.58736 3.86515ZM19.8886 4.23582L20.7767 5.06424L16.5018 9.7467C12.3148 14.3328 12.2011 14.4367 10.9744 14.8009L9.72165 15.1726L9.83341 14.7063C9.89497 14.4498 10.0112 13.8755 10.0921 13.43C10.2124 12.7661 10.9939 11.789 14.4238 8.0137C16.7255 5.48017 18.697 3.4074 18.8047 3.4074C18.9124 3.4074 19.4002 3.78021 19.8886 4.23582Z" fill="#646464"/>
</svg>
