<svg width="28" height="24" viewBox="0 0 28 24" fill="none" xmlns="http://www.w3.org/2000/svg">
<path fill-rule="evenodd" clip-rule="evenodd" d="M10.1931 0.0849527C9.60991 0.245083 9.09359 0.770916 8.9352 1.36605C8.82888 1.76562 8.83057 2.62242 8.93814 2.83043C9.08854 3.12134 9.46935 3.23375 9.77276 3.07683C10.036 2.94072 10.0716 2.8518 10.1078 2.23905C10.1439 1.62804 10.1999 1.47068 10.424 1.35072C10.6191 1.24636 17.2023 1.24636 17.3974 1.35072C17.6215 1.47068 17.6775 1.62804 17.7137 2.23905C17.7499 2.8518 17.7855 2.94072 18.0487 3.07683C18.3521 3.23375 18.7329 3.12134 18.8833 2.83043C18.991 2.6222 18.9925 1.76545 18.886 1.36496C18.7243 0.757544 18.2099 0.243507 17.6019 0.0816915C17.1852 -0.0291932 10.5983 -0.0263125 10.1931 0.0849527ZM1.59627 4.45837C0.974718 4.55072 0.441167 4.95317 0.168086 5.53575L0.0229577 5.84536L0.00665112 8.20475C-0.00889448 10.4595 -0.00465477 10.5805 0.102697 10.934C0.244455 11.4006 0.664186 11.8837 1.08517 12.0648C1.27655 12.1471 11.1639 14.4063 11.3328 14.4063C11.3404 14.4063 11.3548 14.9138 11.365 15.5342C11.3853 16.7716 11.4014 16.8384 11.717 16.9882C11.972 17.1092 15.8494 17.1092 16.1044 16.9882C16.42 16.8384 16.4362 16.7716 16.4564 15.5342C16.4666 14.9138 16.4811 14.4063 16.4886 14.4063C16.6576 14.4063 26.5449 12.1471 26.7363 12.0648C27.1572 11.8837 27.577 11.4006 27.7187 10.934C27.8261 10.5805 27.8303 10.4595 27.8148 8.20475L27.7985 5.84536L27.6515 5.53173C27.4587 5.12031 27.0446 4.72026 26.6441 4.55855L26.3309 4.43212L14.101 4.42484C7.3745 4.42087 1.74738 4.43593 1.59627 4.45837ZM26.307 5.82052C26.3974 5.88487 26.4865 6.0163 26.5189 6.13306C26.6012 6.42924 26.5885 10.3566 26.5045 10.5963C26.4688 10.6982 26.3784 10.826 26.3037 10.8803C26.214 10.9455 24.5228 11.3466 21.3302 12.0599L16.4926 13.1407L16.4539 12.8115C16.4011 12.3616 16.3237 12.2002 16.1125 12.1C15.8435 11.9724 11.9779 11.9724 11.709 12.1C11.4977 12.2002 11.4203 12.3616 11.3675 12.8115L11.3288 13.1407L6.49123 12.0599C3.29862 11.3466 1.60741 10.9455 1.51773 10.8803C1.44299 10.826 1.35265 10.6982 1.31694 10.5963C1.23497 10.3624 1.21953 6.42755 1.29949 6.14393C1.32895 6.03951 1.42065 5.89917 1.50332 5.83204L1.65361 5.71001L13.9023 5.70974C26.1503 5.70947 26.151 5.70947 26.307 5.82052ZM1.04533 13.3243C0.949877 13.3522 0.821055 13.4463 0.758982 13.5335C0.646738 13.6912 0.646249 13.7131 0.660708 18.1665L0.67522 22.6411L0.819153 22.9481C1.00244 23.339 1.33618 23.6728 1.7271 23.8561L2.0341 24H13.9107H25.7873L26.0943 23.8561C26.4853 23.6728 26.819 23.339 27.0023 22.9481L27.1462 22.6411L27.1607 18.1665C27.1751 13.7238 27.1744 13.6908 27.0633 13.5346C26.9374 13.3579 26.6445 13.2538 26.4068 13.3013C26.2025 13.3421 25.9994 13.55 25.957 13.7616C25.9384 13.8546 25.9231 15.8171 25.923 18.1228C25.9228 22.179 25.9194 22.3206 25.8171 22.4883C25.7461 22.6048 25.6437 22.6805 25.5048 22.719C25.2173 22.7989 2.60635 22.7995 2.31898 22.7197C1.9024 22.604 1.92865 22.8972 1.89821 18.0234C1.86951 13.4326 1.87587 13.5419 1.63019 13.3885C1.48522 13.298 1.23073 13.2701 1.04533 13.3243ZM15.1609 14.5422V15.8195H13.9107H12.6605V14.5422V13.2648H13.9107H15.1609V14.5422Z" fill="white"/>
</svg>
