<svg width="242" height="290" viewBox="0 0 242 290" fill="none" xmlns="http://www.w3.org/2000/svg">
<path opacity="0.2" d="M37.7888 11.3383C94.2515 -0.161879 153.074 -1.61701 210.053 1.29325C232.587 2.46674 256.596 5.28312 274.298 23.0263C291.004 39.7838 299.118 67.572 299.929 94.6093C300.704 121.647 295.024 148.308 288.349 173.984C284.44 189.005 279.055 205.481 267.549 211.536C255.71 217.826 246.885 211.536 236.066 198.772C228.875 190.291 238.525 147.818 185.41 142.269C135.246 145.296 135.225 127.843 111.364 120.379C97.4969 116.014 83.0032 116.389 68.6939 116.014C54.4215 115.638 39.7803 114.465 26.6143 107.33C-16.4979 83.8601 -3.22129 19.6936 37.7888 11.3383Z" fill="#121414"/>
<path d="M299.081 289.756C267.046 261.347 245.186 222.342 237.572 179.959C236.915 176.383 236.39 172.675 235.799 169.099C233.896 156.185 231.861 142.808 225.427 131.484C214.53 112.213 192.145 99.8298 156.96 93.6711C152.496 92.9427 147.901 92.2142 143.437 91.4858C121.052 87.976 97.9448 84.3337 79.236 71.4865C65.7787 62.2816 55.9976 45.9908 54.2909 29.9649C52.978 18.1773 56.1289 7.91278 63.3499 0.230957L64.3346 1.15808C57.3762 8.50879 54.3565 18.4422 55.6038 29.8325C57.2449 45.461 66.8291 61.3545 79.9581 70.427C98.4699 83.0755 121.38 86.7177 143.634 90.1613C148.098 90.8898 152.693 91.6182 157.222 92.4129C192.736 98.6378 215.449 111.154 226.543 130.822C233.108 142.411 235.143 155.854 237.112 168.9C237.637 172.476 238.228 176.118 238.885 179.694C246.434 221.812 268.097 260.552 300 288.763L299.081 289.756Z" fill="black"/>
<path d="M353.081 289.756C321.046 261.347 299.186 222.342 291.572 179.959C290.915 176.383 290.39 172.675 289.799 169.099C287.896 156.185 285.861 142.808 279.427 131.484C268.53 112.213 246.145 99.8298 210.96 93.6711C206.496 92.9427 201.901 92.2142 197.437 91.4858C175.052 87.976 151.945 84.3337 133.236 71.4865C119.779 62.2816 109.998 45.9908 108.291 29.9649C106.978 18.1773 110.129 7.91278 117.35 0.230957L118.335 1.15808C111.376 8.50879 108.357 18.4422 109.604 29.8325C111.245 45.461 120.829 61.3545 133.958 70.427C152.47 83.0755 175.38 86.7177 197.634 90.1613C202.098 90.8898 206.693 91.6182 211.222 92.4129C246.736 98.6378 269.449 111.154 280.543 130.822C287.108 142.411 289.143 155.854 291.112 168.9C291.637 172.476 292.228 176.118 292.885 179.694C300.434 221.812 322.097 260.552 354 288.763L353.081 289.756Z" fill="black"/>
<path d="M411.081 289.756C379.046 261.347 357.186 222.342 349.572 179.959C348.915 176.383 348.39 172.675 347.799 169.099C345.896 156.185 343.861 142.808 337.427 131.484C326.53 112.213 304.145 99.8298 268.96 93.6711C264.496 92.9427 259.901 92.2142 255.437 91.4858C233.052 87.976 209.945 84.3337 191.236 71.4865C177.779 62.2816 167.998 45.9908 166.291 29.9649C164.978 18.1773 168.129 7.91278 175.35 0.230957L176.335 1.15808C169.376 8.50879 166.357 18.4422 167.604 29.8325C169.245 45.461 178.829 61.3545 191.958 70.427C210.47 83.0755 233.38 86.7177 255.634 90.1613C260.098 90.8898 264.693 91.6182 269.222 92.4129C304.736 98.6378 327.449 111.154 338.543 130.822C345.108 142.411 347.143 155.854 349.112 168.9C349.637 172.476 350.228 176.118 350.885 179.694C358.434 221.812 380.097 260.552 412 288.763L411.081 289.756Z" fill="black"/>
</svg>
